<?xml version="1.0" standalone="no"?>
<!DOCTYPE svg PUBLIC "-//W3C//DTD SVG 20010904//EN"
 "http://www.w3.org/TR/2001/REC-SVG-20010904/DTD/svg10.dtd">
<svg version="1.0" xmlns="http://www.w3.org/2000/svg"
 width="916.000000pt" height="544.000000pt" viewBox="0 0 916.000000 544.000000"
 preserveAspectRatio="xMidYMid meet">

<g transform="translate(0.000000,544.000000) scale(0.100000,-0.100000)"
fill="#000000" stroke="none">
<path d="M6074 5044 c-467 -56 -905 -262 -1252 -589 -237 -223 -443 -538 -552
-843 -41 -117 -84 -274 -95 -354 l-7 -48 162 0 c148 0 161 -1 158 -17 -3 -16
-20 -18 -165 -21 l-162 -2 -8 -48 c-16 -92 -9 -479 10 -594 79 -472 287 -884
609 -1209 334 -337 728 -543 1198 -626 188 -33 498 -38 678 -10 502 78 936
303 1282 664 316 328 514 736 586 1203 24 158 24 463 0 620 -98 641 -446 1186
-982 1537 -422 277 -952 399 -1460 337z m-546 -1026 c5 -7 36 -80 67 -163 32
-82 72 -188 90 -235 18 -47 56 -146 84 -220 29 -74 66 -171 83 -215 17 -44 46
-118 64 -165 18 -47 48 -125 67 -175 19 -49 61 -157 92 -240 75 -196 96 -251
140 -365 21 -52 45 -117 55 -145 10 -27 41 -108 69 -180 28 -71 51 -136 51
-143 0 -10 -46 -12 -211 -10 l-211 3 -23 60 c-13 33 -49 125 -80 205 -31 80
-66 170 -77 200 -11 30 -33 87 -49 125 -16 39 -34 88 -41 110 l-13 40 -361 3
-361 2 -26 -62 c-14 -35 -51 -128 -82 -208 -31 -80 -71 -183 -90 -230 -18 -47
-48 -122 -65 -167 -30 -76 -35 -83 -60 -83 -35 0 -36 -3 48 205 36 88 73 184
83 213 10 29 29 79 42 110 24 56 35 83 155 392 33 85 90 232 127 325 37 94 87
222 111 285 25 63 58 147 74 185 15 39 44 111 63 160 92 236 150 381 154 388
6 11 19 9 31 -5z m2270 -20 l3 -28 -285 0 -286 0 -2 -1102 -3 -1103 -200 0
-200 0 -3 1102 -2 1103 -287 2 c-273 3 -288 4 -291 22 -2 10 2 22 10 27 7 5
357 8 778 6 l765 -2 3 -27z m-297 -608 c4 -114 6 -132 24 -149 33 -32 94 -32
125 1 18 20 20 35 20 150 l0 128 25 0 25 0 0 -126 c0 -145 -12 -183 -65 -208
-41 -20 -85 -20 -129 -2 -60 25 -66 44 -66 198 0 129 1 138 19 138 18 0 19
-10 22 -130z m454 117 c69 -21 85 -110 28 -163 l-25 -24 41 -65 c22 -37 41
-68 41 -71 0 -2 -12 -4 -27 -4 -24 0 -34 11 -66 65 -33 57 -42 65 -67 65 l-30
0 0 -65 c0 -63 -1 -65 -25 -65 l-25 0 0 170 0 170 58 -1 c31 0 75 -6 97 -12z
m-265 -547 c0 -17 -7 -20 -41 -20 -51 0 -75 -13 -94 -50 -22 -42 -20 -63 4
-50 26 14 92 12 112 -3 62 -47 48 -171 -22 -196 -102 -35 -165 32 -157 166 5
82 22 120 67 150 46 31 131 33 131 3z m245 -5 c17 -16 25 -35 25 -60 0 -25 -8
-44 -25 -60 -13 -14 -20 -25 -15 -25 6 0 19 -9 30 -20 29 -29 27 -94 -4 -125
-47 -47 -187 -45 -194 3 -3 22 -1 23 30 16 48 -13 104 -10 122 5 9 7 16 26 16
42 0 36 -32 59 -82 59 -31 0 -38 4 -38 20 0 13 7 20 20 20 11 0 36 7 55 14 29
12 35 20 35 45 0 48 -56 66 -110 36 -25 -13 -50 -5 -50 17 0 16 63 37 113 38
38 0 53 -5 72 -25z m-276 -531 c13 -9 29 -32 37 -50 18 -44 18 -175 0 -219
-29 -68 -131 -85 -175 -29 -39 49 -49 174 -20 251 22 59 105 84 158 47z m255
5 c77 -36 87 -252 15 -314 -55 -46 -126 -28 -159 40 -22 46 -27 144 -10 207
19 67 88 97 154 67z"/>
<path d="M5295 3358 c-15 -40 -42 -109 -61 -153 -18 -44 -53 -134 -79 -200
-25 -66 -58 -151 -74 -190 -16 -38 -44 -109 -64 -157 l-35 -88 334 0 c205 0
334 4 334 10 0 5 -4 19 -9 32 -17 42 -79 202 -101 263 -12 33 -31 83 -42 110
-12 28 -29 73 -39 100 -27 77 -129 338 -133 342 -2 2 -16 -29 -31 -69z"/>
<path d="M7850 3415 l0 -55 43 0 c30 0 49 6 60 18 39 43 7 92 -61 92 l-42 0 0
-55z"/>
<path d="M7556 2791 c-26 -28 -18 -79 17 -105 26 -19 30 -19 54 -6 33 19 47
64 30 99 -16 34 -75 41 -101 12z"/>
<path d="M7555 2377 c-34 -52 -31 -191 6 -228 25 -25 45 -24 74 6 22 22 25 32
25 105 0 78 -10 116 -34 132 -22 15 -56 8 -71 -15z"/>
<path d="M7821 2374 c-17 -22 -21 -41 -21 -100 0 -83 10 -118 40 -134 51 -28
90 27 90 127 0 111 -60 170 -109 107z"/>
<path d="M690 2850 l0 -1230 510 0 c333 0 510 3 510 10 0 6 -128 10 -365 10
l-365 0 0 1220 0 1220 -145 0 -145 0 0 -1230z"/>
<path d="M2360 2850 l0 -1230 145 0 145 0 0 1230 0 1230 -145 0 -145 0 0
-1230z"/>
<path d="M3250 2850 l0 -1230 145 0 145 0 0 780 0 780 295 0 c190 0 295 4 295
10 0 6 -105 10 -295 10 l-295 0 0 430 0 430 400 0 c260 0 400 4 400 10 0 7
-188 10 -545 10 l-545 0 0 -1230z"/>
</g>
</svg>
